<svg version="1.1" xmlns="http://www.w3.org/2000/svg" viewBox="0 0 280.87144968509676 260.1843807572033" width="280.87144968509676" height="260.1843807572033" class="excalidraw-svg">
  <!-- svg-source:excalidraw -->
  
  <defs>
    <style class="style-fonts">
      @font-face {
        font-family: "Virgil";
        src: url("https://excalidraw.com/Virgil.woff2");
      }
      @font-face {
        font-family: "Cascadia";
        src: url("https://excalidraw.com/Cascadia.woff2");
      }
      @font-face {
        font-family: "Assistant";
        src: url("https://excalidraw.com/Assistant-Regular.woff2");
      }
    </style>
    
  </defs>
  <rect x="0" y="0" width="280.87144968509676" height="260.1843807572033" fill="#ffffff"></rect><g stroke-linecap="round"><g transform="translate(31.2807970173657 249.0923520193901) rotate(0 -1.236328125 -119.130859375)"><path d="M-0.32 1.09 C-0.76 -38.46, -2.46 -197.54, -2.75 -237.41 M1.72 0.62 C1.11 -39.25, -3.12 -199.53, -3.85 -239.09" stroke="#1e1e1e" stroke-width="2" fill="none"></path></g><g transform="translate(31.2807970173657 249.0923520193901) rotate(0 -1.236328125 -119.130859375)"><path d="M5.24 -215.8 C4.44 -223.05, 1.39 -228.72, -3.85 -239.09 M5.24 -215.8 C2.91 -223.64, 0.01 -230.76, -3.85 -239.09" stroke="#1e1e1e" stroke-width="2" fill="none"></path></g><g transform="translate(31.2807970173657 249.0923520193901) rotate(0 -1.236328125 -119.130859375)"><path d="M-11.86 -215.41 C-7.69 -222.73, -5.78 -228.52, -3.85 -239.09 M-11.86 -215.41 C-8.9 -223.25, -6.51 -230.49, -3.85 -239.09" stroke="#1e1e1e" stroke-width="2" fill="none"></path></g></g><mask></mask><g stroke-linecap="round"><g transform="translate(10.2807970173657 219.1040707693901) rotate(0 130.109375 -0.638671875)"><path d="M-0.28 0.85 C43.2 0.47, 217.05 -0.68, 260.59 -1.16 M1.77 0.25 C45.16 0.6, 216.7 0.67, 259.84 0.43" stroke="#1e1e1e" stroke-width="2" fill="none"></path></g><g transform="translate(10.2807970173657 219.1040707693901) rotate(0 130.109375 -0.638671875)"><path d="M236.36 9.03 C244.12 7.35, 249.32 5.65, 259.84 0.43 M236.36 9.03 C242.32 6.68, 247.82 5.25, 259.84 0.43" stroke="#1e1e1e" stroke-width="2" fill="none"></path></g><g transform="translate(10.2807970173657 219.1040707693901) rotate(0 130.109375 -0.638671875)"><path d="M236.33 -8.07 C244.25 -5.07, 249.46 -2.1, 259.84 0.43 M236.33 -8.07 C242.4 -6.44, 247.91 -3.89, 259.84 0.43" stroke="#1e1e1e" stroke-width="2" fill="none"></path></g></g><mask></mask><g stroke-linecap="round"><g transform="translate(72.62471097707748 219.16457338272593) rotate(0 77.75390625 -55.69140625)"><path d="M0 0 C23.64 -36.2, 46.55 -71.6, 74.64 -114.94 M0 0 C26.97 -41.48, 52.88 -83.38, 74.64 -114.94 M74.64 -114.94 C100.96 -77.93, 125.17 -35.88, 155.51 3.55 M74.64 -114.94 C95.77 -81.62, 119.96 -47.93, 155.51 3.55" stroke="#1e1e1e" stroke-width="2" fill="none"></path></g></g><mask></mask><g stroke-linecap="round"><g transform="translate(130.12080472707748 133.95363588272593) rotate(0 17.78125 -0.181640625)"><path d="M0 0 C11.28 -0.58, 21.6 -0.1, 35.56 -0.36 M0 0 C8.33 -0.28, 16.94 -0.13, 35.56 -0.36" stroke="#e03131" stroke-width="2" fill="none"></path></g><g transform="translate(130.12080472707748 133.95363588272593) rotate(0 17.78125 -0.181640625)"><path d="M18.91 5.87 C24.18 3.48, 28.6 2.03, 35.56 -0.36 M18.91 5.87 C22.74 4.15, 26.85 2.87, 35.56 -0.36" stroke="#e03131" stroke-width="2" fill="none"></path></g><g transform="translate(130.12080472707748 133.95363588272593) rotate(0 17.78125 -0.181640625)"><path d="M18.8 -6.3 C24.12 -4.82, 28.57 -2.41, 35.56 -0.36 M18.8 -6.3 C22.71 -5.13, 26.84 -3.52, 35.56 -0.36" stroke="#e03131" stroke-width="2" fill="none"></path></g></g><mask></mask><g stroke-linecap="round"><g transform="translate(114.89033597707748 160.15676088272593) rotate(0 33.45703125 -0.623046875)"><path d="M0 0 C21.3 -1.02, 46 0.52, 66.91 -1.25 M0 0 C17.85 0.35, 36.08 -0.74, 66.91 -1.25" stroke="#e03131" stroke-width="2" fill="none"></path></g><g transform="translate(114.89033597707748 160.15676088272593) rotate(0 33.45703125 -0.623046875)"><path d="M43.62 7.83 C50.09 4.54, 59.94 3.42, 66.91 -1.25 M43.62 7.83 C49.63 5.73, 56.02 2.52, 66.91 -1.25" stroke="#e03131" stroke-width="2" fill="none"></path></g><g transform="translate(114.89033597707748 160.15676088272593) rotate(0 33.45703125 -0.623046875)"><path d="M43.23 -9.26 C49.76 -6.74, 59.74 -2.03, 66.91 -1.25 M43.23 -9.26 C49.36 -6.72, 55.86 -5.29, 66.91 -1.25" stroke="#e03131" stroke-width="2" fill="none"></path></g></g><mask></mask><g stroke-linecap="round"><g transform="translate(86.62080472707748 200.86769838272593) rotate(0 60.025390625 -1.298828125)"><path d="M0 0 C47.92 1.93, 93.87 -2.09, 120.05 -2.6 M0 0 C33.05 -0.65, 64.63 -0.3, 120.05 -2.6" stroke="#e03131" stroke-width="2" fill="none"></path></g><g transform="translate(86.62080472707748 200.86769838272593) rotate(0 60.025390625 -1.298828125)"><path d="M96.85 6.72 C106.85 5.05, 114.82 -1.6, 120.05 -2.6 M96.85 6.72 C103.65 3.72, 108.92 2.25, 120.05 -2.6" stroke="#e03131" stroke-width="2" fill="none"></path></g><g transform="translate(86.62080472707748 200.86769838272593) rotate(0 60.025390625 -1.298828125)"><path d="M96.29 -10.37 C106.36 -5.33, 114.56 -5.28, 120.05 -2.6 M96.29 -10.37 C103.11 -8.72, 108.54 -5.56, 120.05 -2.6" stroke="#e03131" stroke-width="2" fill="none"></path></g></g><mask></mask><g transform="translate(91.30734602744226 180.43811978139237) rotate(0 6.374473166123003 3.0341207821059726)" stroke="none"><path fill="#1e1e1e" d="M 0.81,-1.02 Q 0.81,-1.02 1.33,-0.60 1.85,-0.19 2.40,0.20 2.94,0.61 3.45,1.05 3.95,1.50 4.43,2.08 4.90,2.66 5.31,3.21 5.72,3.76 6.16,4.31 6.60,4.87 5.93,4.75 5.25,4.62 5.40,4.06 5.55,3.51 6.30,3.03 7.04,2.55 7.70,2.18 8.36,1.82 9.87,1.29 11.37,0.76 11.57,0.57 11.77,0.38 12.03,0.26 12.28,0.14 12.55,0.11 12.83,0.08 13.10,0.14 13.37,0.20 13.61,0.35 13.85,0.49 14.02,0.70 14.20,0.91 14.31,1.17 14.41,1.43 14.42,1.71 14.44,1.98 14.36,2.25 14.29,2.52 14.13,2.75 13.98,2.98 13.76,3.14 13.54,3.31 13.27,3.40 13.01,3.49 12.73,3.49 12.46,3.49 12.19,3.40 11.93,3.31 11.71,3.14 11.49,2.97 11.33,2.74 11.18,2.51 11.10,2.25 11.03,1.98 11.05,1.70 11.06,1.43 11.16,1.17 11.27,0.91 11.45,0.70 11.63,0.49 11.86,0.35 12.10,0.20 12.37,0.14 12.64,0.08 12.92,0.11 13.19,0.14 13.45,0.26 13.70,0.38 13.90,0.57 14.10,0.76 14.23,1.00 14.36,1.25 14.40,1.52 14.45,1.80 14.40,2.07 14.36,2.34 14.23,2.59 14.10,2.83 14.10,2.83 14.10,2.83 12.03,3.84 9.96,4.84 9.39,5.15 8.82,5.46 8.25,5.82 7.68,6.19 7.28,6.57 6.88,6.95 6.19,7.19 5.50,7.44 4.72,7.16 3.93,6.88 3.63,6.41 3.32,5.95 2.94,5.35 2.55,4.74 2.21,4.16 1.86,3.58 1.50,3.15 1.14,2.72 0.68,2.29 0.22,1.85 -0.29,1.44 -0.81,1.02 -0.92,0.91 -1.03,0.79 -1.11,0.66 -1.19,0.52 -1.24,0.37 -1.29,0.22 -1.29,0.06 -1.30,-0.08 -1.27,-0.24 -1.24,-0.40 -1.18,-0.54 -1.11,-0.68 -1.01,-0.81 -0.91,-0.93 -0.79,-1.03 -0.66,-1.12 -0.52,-1.19 -0.37,-1.25 -0.22,-1.28 -0.06,-1.30 0.08,-1.29 0.24,-1.28 0.39,-1.23 0.54,-1.19 0.68,-1.10 0.81,-1.02 0.81,-1.02 L 0.81,-1.02 Z"></path></g><g transform="translate(142.74798954027665 212.71853334754616) rotate(0 3.8243706192626377 6.493519722364638)" stroke="none"><path fill="#1e1e1e" d="M 0.61,-1.15 Q 0.61,-1.15 1.34,-0.73 2.06,-0.31 2.59,-0.05 3.12,0.21 3.88,0.60 4.64,0.98 5.22,1.30 5.79,1.63 6.29,2.01 6.79,2.39 7.22,2.83 7.65,3.28 8.03,3.72 8.41,4.17 8.73,4.78 9.06,5.39 9.15,6.04 9.25,6.69 8.95,7.38 8.65,8.08 8.11,8.75 7.58,9.43 7.04,10.01 6.49,10.59 6.10,11.05 5.71,11.51 4.70,12.70 3.69,13.89 3.51,14.10 3.33,14.31 3.09,14.45 2.86,14.59 2.59,14.65 2.32,14.71 2.04,14.68 1.77,14.64 1.52,14.53 1.27,14.41 1.07,14.22 0.87,14.03 0.74,13.79 0.62,13.55 0.57,13.27 0.53,13.00 0.57,12.73 0.62,12.46 0.75,12.22 0.88,11.97 1.08,11.78 1.28,11.59 1.53,11.48 1.78,11.36 2.05,11.34 2.33,11.31 2.60,11.37 2.86,11.43 3.10,11.57 3.34,11.71 3.51,11.92 3.69,12.13 3.79,12.39 3.89,12.64 3.91,12.92 3.92,13.19 3.85,13.46 3.77,13.72 3.62,13.95 3.46,14.18 3.24,14.35 3.02,14.51 2.76,14.60 2.50,14.69 2.23,14.69 1.95,14.68 1.69,14.60 1.43,14.51 1.21,14.34 0.99,14.17 0.84,13.94 0.68,13.72 0.61,13.45 0.54,13.19 0.55,12.91 0.57,12.64 0.67,12.38 0.77,12.12 0.77,12.12 0.77,12.13 1.93,10.73 3.09,9.34 3.56,8.80 4.03,8.27 4.53,7.74 5.03,7.21 5.47,6.67 5.92,6.14 6.08,6.66 6.23,7.18 5.97,6.53 5.72,5.89 5.38,5.40 5.05,4.91 4.62,4.46 4.20,4.00 3.74,3.67 3.28,3.34 2.59,2.90 1.91,2.47 1.40,2.18 0.88,1.89 0.13,1.52 -0.61,1.15 -0.74,1.06 -0.87,0.97 -0.97,0.85 -1.08,0.73 -1.15,0.59 -1.22,0.45 -1.26,0.30 -1.30,0.14 -1.29,-0.00 -1.29,-0.16 -1.25,-0.32 -1.22,-0.47 -1.14,-0.61 -1.07,-0.75 -0.96,-0.86 -0.86,-0.98 -0.73,-1.07 -0.59,-1.16 -0.45,-1.21 -0.30,-1.27 -0.14,-1.29 0.00,-1.30 0.16,-1.28 0.32,-1.26 0.47,-1.21 0.61,-1.15 0.61,-1.15 L 0.61,-1.15 Z"></path></g><g transform="translate(197.1483602764088 185.2520485695249) rotate(0 5.119462189889962 -4.430956435836087)" stroke="none"><path fill="#1e1e1e" d="M -1.32,0 Q -1.32,0 -1.33,-0.56 -1.34,-1.13 -1.37,-1.88 -1.41,-2.62 -1.44,-3.15 -1.47,-3.69 -1.50,-4.32 -1.54,-4.95 -1.57,-5.52 -1.59,-6.09 -1.56,-6.68 -1.52,-7.28 -1.37,-7.94 -1.23,-8.61 -0.98,-9.24 -0.74,-9.87 -0.19,-10.21 0.35,-10.55 0.99,-10.49 1.63,-10.42 2.16,-10.33 2.68,-10.23 3.23,-10.14 3.77,-10.05 4.40,-9.93 5.03,-9.82 5.79,-9.64 6.56,-9.46 7.34,-9.20 8.12,-8.93 9.79,-8.02 11.46,-7.11 11.62,-6.88 11.79,-6.65 11.87,-6.38 11.95,-6.11 11.95,-5.83 11.94,-5.55 11.85,-5.28 11.75,-5.02 11.57,-4.80 11.40,-4.58 11.16,-4.42 10.92,-4.27 10.65,-4.20 10.38,-4.13 10.09,-4.15 9.81,-4.17 9.55,-4.28 9.29,-4.40 9.08,-4.58 8.87,-4.77 8.73,-5.02 8.59,-5.26 8.54,-5.54 8.48,-5.82 8.52,-6.10 8.56,-6.38 8.68,-6.63 8.80,-6.88 9.00,-7.08 9.20,-7.28 9.46,-7.41 9.71,-7.54 9.99,-7.58 10.27,-7.61 10.54,-7.56 10.82,-7.51 11.07,-7.37 11.31,-7.23 11.50,-7.03 11.69,-6.82 11.81,-6.56 11.92,-6.30 11.94,-6.02 11.97,-5.74 11.90,-5.46 11.83,-5.19 11.68,-4.95 11.53,-4.71 11.31,-4.53 11.09,-4.35 10.83,-4.26 10.56,-4.16 10.28,-4.15 10.00,-4.14 9.73,-4.22 9.46,-4.30 9.23,-4.47 9.00,-4.63 9.00,-4.63 9.00,-4.63 7.93,-5.15 6.87,-5.67 6.30,-5.87 5.74,-6.06 5.06,-6.21 4.38,-6.35 3.76,-6.47 3.15,-6.58 2.61,-6.68 2.07,-6.78 1.58,-7.01 1.08,-7.24 1.62,-7.83 2.16,-8.42 1.98,-7.79 1.79,-7.15 1.69,-6.62 1.59,-6.09 1.57,-5.52 1.54,-4.95 1.50,-4.32 1.47,-3.69 1.44,-3.15 1.41,-2.62 1.37,-1.88 1.34,-1.13 1.33,-0.56 1.32,0 1.30,0.15 1.28,0.31 1.22,0.46 1.17,0.61 1.08,0.74 0.99,0.87 0.87,0.98 0.75,1.08 0.61,1.16 0.46,1.23 0.31,1.27 0.15,1.31 -0.00,1.31 -0.15,1.31 -0.31,1.27 -0.46,1.23 -0.61,1.16 -0.75,1.08 -0.87,0.98 -0.99,0.87 -1.08,0.74 -1.17,0.61 -1.22,0.46 -1.28,0.31 -1.30,0.15 -1.32,-0.00 -1.32,-0.00 L -1.32,0 Z"></path></g></svg>