<svg version="1.1" xmlns="http://www.w3.org/2000/svg" viewBox="0 0 281.3850916598831 258.30422976016996" width="281.3850916598831" height="258.30422976016996" class="excalidraw-svg">
  <!-- svg-source:excalidraw -->
  
  <defs>
    <style class="style-fonts">
      @font-face {
        font-family: "Virgil";
        src: url("https://excalidraw.com/Virgil.woff2");
      }
      @font-face {
        font-family: "Cascadia";
        src: url("https://excalidraw.com/Cascadia.woff2");
      }
      @font-face {
        font-family: "Assistant";
        src: url("https://excalidraw.com/Assistant-Regular.woff2");
      }
    </style>
    
  </defs>
  <rect x="0" y="0" width="281.3850916598831" height="258.30422976016996" fill="#ffffff"></rect><g stroke-linecap="round"><g transform="translate(31.75088470996357 248.2159683935344) rotate(0 -1.236328125 -119.130859375)"><path d="M-1.19 0.09 C-1.43 -39.45, -1.86 -198.51, -2.01 -238.22 M0.39 -0.91 C0.08 -40.16, -2.21 -197.35, -2.71 -236.65" stroke="#1e1e1e" stroke-width="2" fill="none"></path></g><g transform="translate(31.75088470996357 248.2159683935344) rotate(0 -1.236328125 -119.130859375)"><path d="M6.16 -213.28 C4.25 -218.52, 1.93 -224.52, -2.71 -236.65 M6.16 -213.28 C3.94 -219.92, 0.04 -228.64, -2.71 -236.65" stroke="#1e1e1e" stroke-width="2" fill="none"></path></g><g transform="translate(31.75088470996357 248.2159683935344) rotate(0 -1.236328125 -119.130859375)"><path d="M-10.94 -213.05 C-8.52 -218.17, -6.5 -224.24, -2.71 -236.65 M-10.94 -213.05 C-7.85 -219.66, -6.46 -228.46, -2.71 -236.65" stroke="#1e1e1e" stroke-width="2" fill="none"></path></g></g><mask></mask><g stroke-linecap="round"><g transform="translate(10.750884709963572 218.2276871435344) rotate(0 130.109375 -0.638671875)"><path d="M0.46 0.05 C44.1 -0.16, 217.18 -0.82, 260.63 -1.15 M-0.75 -0.98 C42.87 -0.98, 216.28 0.45, 259.9 0.45" stroke="#1e1e1e" stroke-width="2" fill="none"></path></g><g transform="translate(10.750884709963572 218.2276871435344) rotate(0 130.109375 -0.638671875)"><path d="M236.37 8.89 C241.17 7.79, 246.03 7.07, 259.9 0.45 M236.37 8.89 C241.61 5.87, 246.97 5.12, 259.9 0.45" stroke="#1e1e1e" stroke-width="2" fill="none"></path></g><g transform="translate(10.750884709963572 218.2276871435344) rotate(0 130.109375 -0.638671875)"><path d="M236.45 -8.21 C241.25 -5.87, 246.09 -3.16, 259.9 0.45 M236.45 -8.21 C241.8 -7.07, 247.14 -3.66, 259.9 0.45" stroke="#1e1e1e" stroke-width="2" fill="none"></path></g></g><mask></mask><g stroke-linecap="round"><g transform="translate(31.299593674172627 149.18377431199417) rotate(0 20.44140625 34.458984375)"><path d="M0 0 C11.8 19.89, 23.6 39.79, 40.88 68.92 M0 0 C12.44 20.98, 24.89 41.96, 40.88 68.92" stroke="#1e1e1e" stroke-width="2" fill="none"></path></g></g><mask></mask><g stroke-linecap="round"><g transform="translate(31.119906174172627 151.70330556199417) rotate(0 66.080078125 -3.734375)"><path d="M0 0 C15.9 -22.09, 31.81 -44.18, 52.25 -72.57 M0 0 C20.32 -28.23, 40.65 -56.46, 52.25 -72.57 M52.25 -72.57 C82.02 -21.29, 111.78 29.99, 132.16 65.11 M52.25 -72.57 C71.06 -40.16, 89.88 -7.74, 132.16 65.11" stroke="#1e1e1e" stroke-width="2" fill="none"></path></g></g><mask></mask><g stroke-linecap="round"><g transform="translate(66.35037492417263 104.43768056199417) rotate(0 15.98046875 -0.38671875)"><path d="M0 0 C9.45 -0.23, 18.89 -0.46, 31.96 -0.77 M0 0 C6.59 -0.16, 13.18 -0.32, 31.96 -0.77" stroke="#e03131" stroke-width="2" fill="none"></path></g><g transform="translate(66.35037492417263 104.43768056199417) rotate(0 15.98046875 -0.38671875)"><path d="M17.08 5.06 C21.48 3.33, 25.88 1.61, 31.96 -0.77 M17.08 5.06 C20.15 3.85, 23.22 2.65, 31.96 -0.77" stroke="#e03131" stroke-width="2" fill="none"></path></g><g transform="translate(66.35037492417263 104.43768056199417) rotate(0 15.98046875 -0.38671875)"><path d="M16.81 -5.88 C21.29 -4.37, 25.77 -2.86, 31.96 -0.77 M16.81 -5.88 C19.94 -4.82, 23.06 -3.77, 31.96 -0.77" stroke="#e03131" stroke-width="2" fill="none"></path></g></g><mask></mask><g stroke-linecap="round"><g transform="translate(48.11990617417263 132.11736806199417) rotate(0 32.7734375 0.873046875)"><path d="M0 0 C14.48 0.39, 28.97 0.77, 65.55 1.75 M0 0 C19.77 0.53, 39.55 1.05, 65.55 1.75" stroke="#e03131" stroke-width="2" fill="none"></path></g><g transform="translate(48.11990617417263 132.11736806199417) rotate(0 32.7734375 0.873046875)"><path d="M41.84 9.67 C47.07 7.92, 52.31 6.17, 65.55 1.75 M41.84 9.67 C48.99 7.28, 56.14 4.89, 65.55 1.75" stroke="#e03131" stroke-width="2" fill="none"></path></g><g transform="translate(48.11990617417263 132.11736806199417) rotate(0 32.7734375 0.873046875)"><path d="M42.29 -7.43 C47.43 -5.4, 52.57 -3.37, 65.55 1.75 M42.29 -7.43 C49.31 -4.66, 56.32 -1.89, 65.55 1.75" stroke="#e03131" stroke-width="2" fill="none"></path></g></g><mask></mask><g stroke-linecap="round"><g transform="translate(40.95974992417263 162.67596181199417) rotate(0 45.0703125 0.908203125)"><path d="M0 0 C31.87 0.64, 63.73 1.28, 90.14 1.82 M0 0 C35.66 0.72, 71.32 1.44, 90.14 1.82" stroke="#e03131" stroke-width="2" fill="none"></path></g><g transform="translate(40.95974992417263 162.67596181199417) rotate(0 45.0703125 0.908203125)"><path d="M66.48 9.89 C74.85 7.04, 83.21 4.18, 90.14 1.82 M66.48 9.89 C75.84 6.7, 85.2 3.5, 90.14 1.82" stroke="#e03131" stroke-width="2" fill="none"></path></g><g transform="translate(40.95974992417263 162.67596181199417) rotate(0 45.0703125 0.908203125)"><path d="M66.83 -7.21 C75.07 -4.02, 83.31 -0.83, 90.14 1.82 M66.83 -7.21 C76.05 -3.64, 85.27 -0.07, 90.14 1.82" stroke="#e03131" stroke-width="2" fill="none"></path></g></g><mask></mask><g stroke-linecap="round"><g transform="translate(56.97928117417263 190.96111806199417) rotate(0 45.888671875 1.03125)"><path d="M0 0 C29.6 0.67, 59.2 1.33, 91.78 2.06 M0 0 C28.81 0.65, 57.63 1.3, 91.78 2.06" stroke="#e03131" stroke-width="2" fill="none"></path></g><g transform="translate(56.97928117417263 190.96111806199417) rotate(0 45.888671875 1.03125)"><path d="M68.1 10.08 C75.74 7.5, 83.37 4.91, 91.78 2.06 M68.1 10.08 C75.53 7.56, 82.97 5.05, 91.78 2.06" stroke="#e03131" stroke-width="2" fill="none"></path></g><g transform="translate(56.97928117417263 190.96111806199417) rotate(0 45.888671875 1.03125)"><path d="M68.48 -7.01 C76 -4.09, 83.51 -1.16, 91.78 2.06 M68.48 -7.01 C75.8 -4.16, 83.11 -1.31, 91.78 2.06" stroke="#e03131" stroke-width="2" fill="none"></path></g></g><mask></mask></svg>